<?xml version="1.0" standalone="no"?>
<!DOCTYPE svg PUBLIC "-//W3C//DTD SVG 20010904//EN"
 "http://www.w3.org/TR/2001/REC-SVG-20010904/DTD/svg10.dtd">
<svg version="1.0" xmlns="http://www.w3.org/2000/svg"
 width="800.000000pt" height="800.000000pt" viewBox="0 0 800.000000 800.000000"
 preserveAspectRatio="xMidYMid meet">

<g transform="translate(0.000000,800.000000) scale(0.100000,-0.100000)"
fill="#000000" stroke="none">
<path d="M0 4000 l0 -4000 4000 0 4000 0 0 4000 0 4000 -4000 0 -4000 0 0
-4000z m5005 1650 l-225 -225 -387 388 -388 387 -387 -387 -388 -388 -225 225
-225 225 612 612 613 613 612 -612 613 -613 -225 -225z m-2325 -775 l-225
-225 -225 225 -225 225 225 225 225 225 225 -225 225 -225 -225 -225z m1550 0
l-225 -225 -225 225 -225 225 225 225 225 225 225 -225 225 -225 -225 -225z
m1546 -4 l-226 -226 -225 225 -225 225 227 228 228 228 223 -227 224 -227
-226 -226z m-2156 -486 l385 -385 387 387 388 388 225 -225 225 -225 -612
-612 -613 -613 -612 612 -613 613 222 222 c123 123 225 223 228 223 3 0 178
-173 390 -385z m-1565 -2089 c27 -13 58 -30 69 -38 18 -14 18 -16 -9 -56 -15
-23 -30 -42 -32 -42 -2 0 -25 12 -50 27 -34 20 -63 27 -118 31 -69 4 -75 3
-99 -21 -35 -35 -36 -88 -1 -115 13 -11 70 -32 125 -47 113 -31 181 -69 205
-116 22 -42 22 -126 0 -173 -50 -105 -215 -144 -366 -86 -59 22 -129 66 -129
80 0 5 14 25 31 45 l31 35 27 -19 c109 -77 240 -88 290 -24 27 34 27 68 -1 96
-22 21 -56 34 -189 71 -129 36 -186 116 -165 231 12 62 82 125 161 146 51 14
165 1 220 -25z m2759 1 c267 -123 266 -510 -2 -635 -49 -23 -70 -27 -152 -27
-84 0 -102 3 -152 28 -72 35 -134 97 -167 167 -22 47 -26 69 -26 150 0 112 18
161 86 235 44 48 93 78 164 102 61 20 182 10 249 -20z m-2402 -204 c3 -222 4
-229 28 -272 32 -57 78 -81 151 -81 66 0 111 25 143 80 19 32 21 54 24 268 l3
233 57 -3 57 -3 3 -190 c4 -268 -13 -349 -90 -422 -44 -43 -97 -63 -177 -70
-136 -11 -249 52 -290 163 -19 50 -21 77 -21 289 l0 235 54 0 54 0 4 -227z
m985 213 c103 -27 164 -105 165 -209 1 -76 -17 -119 -67 -166 -56 -52 -122
-71 -242 -71 l-93 0 0 -110 0 -110 -60 0 -60 0 0 340 0 340 153 0 c97 0 171
-5 204 -14z m647 0 c111 -34 166 -104 166 -212 0 -72 -24 -128 -73 -171 -50
-44 -121 -63 -234 -63 l-93 0 0 -110 0 -110 -60 0 -60 0 0 340 0 340 153 0
c105 0 169 -5 201 -14z m1541 -9 c86 -39 125 -99 125 -195 0 -83 -30 -138 -98
-177 -28 -16 -50 -34 -48 -40 2 -5 40 -62 86 -125 l82 -115 -68 -3 c-48 -2
-70 1 -75 10 -4 7 -42 61 -84 121 l-76 107 -74 0 -75 0 0 -120 0 -120 -60 0
-60 0 0 341 0 341 193 -4 c156 -3 200 -7 232 -21z m775 -32 l0 -55 -105 0
c-58 0 -105 -3 -105 -7 0 -5 -1 -132 -3 -283 l-2 -275 -57 -3 -58 -3 0 286 0
285 -110 0 -110 0 0 55 0 55 275 0 275 0 0 -55z"/>
<path d="M4570 2204 c-46 -20 -87 -59 -113 -109 -17 -31 -22 -58 -22 -115 0
-57 5 -84 22 -115 45 -84 114 -125 211 -125 156 0 258 155 212 321 -13 48 -75
118 -124 140 -50 23 -138 24 -186 3z"/>
<path d="M3160 2085 l0 -125 100 3 c114 3 142 16 174 82 17 35 18 42 5 79 -9
25 -27 49 -48 63 -30 20 -46 23 -132 23 l-99 0 0 -125z"/>
<path d="M3810 2084 l0 -127 94 6 c138 8 189 42 188 128 -1 87 -52 119 -192
119 l-90 0 0 -126z"/>
<path d="M5280 2094 l0 -116 119 3 c102 3 124 7 148 25 65 48 61 152 -7 186
-27 14 -60 18 -147 18 l-113 0 0 -116z"/>
</g>
</svg>
